<?xml version="1.0" encoding="UTF-8"?>
<svg id="Layer_2" data-name="Layer 2" xmlns="http://www.w3.org/2000/svg" viewBox="0 0 1178.3 225.18">
  <defs>
    <style>
      .cls-1 {
        fill: #ff138c;
        stroke: #ff138c;
        stroke-miterlimit: 10;
        stroke-width: 3px;
      }
    </style>
  </defs>
  <g id="Layer_1-2" data-name="Layer 1">
    <path class="cls-1" d="M70.81,25.22c-3.39-3.2-7.81-4.8-13.26-4.8-5.73,0-10.73,1.31-14.98,3.94-4.25,2.63-7.74,6.02-10.46,10.18-2.72,4.16-4.75,8.79-6.09,13.9-1.34,5.11-2.01,10.11-2.01,14.98,0,3.54.45,6.88,1.36,10.03.91,3.15,2.29,5.95,4.16,8.39,1.86,2.44,4.25,4.37,7.17,5.81,2.91,1.43,6.43,2.15,10.54,2.15,3.06,0,5.95-.55,8.67-1.65,2.72-1.1,5.14-2.58,7.24-4.44,2.1-1.86,3.87-4.04,5.3-6.52,1.43-2.48,2.39-5.06,2.87-7.74h22.51c-2.29,7.17-4.99,13.24-8.1,18.21-3.11,4.97-6.59,9.01-10.46,12.11-3.87,3.11-8.17,5.35-12.9,6.74-4.73,1.38-9.87,2.08-15.41,2.08-14.53,0-25.73-3.87-33.61-11.61S1.5,78.05,1.5,63.43c0-8.31,1.29-16.2,3.87-23.65,2.58-7.45,6.28-14.02,11.11-19.71,4.82-5.68,10.7-10.2,17.63-13.55,6.93-3.34,14.69-5.02,23.29-5.02,5.92,0,11.42.81,16.48,2.44,5.06,1.63,9.44,4.04,13.12,7.24,3.68,3.2,6.52,7.17,8.53,11.9,2.01,4.73,2.96,10.2,2.87,16.41h-22.5c0-6.31-1.7-11.06-5.09-14.26Z"/>
    <path class="cls-1" d="M98.56,3.94h23.08l15.34,43.58L168.8,3.94h26.52l-49.88,63.64-7.88,38.7h-22.65l8.17-39.71L98.56,3.94Z"/>
    <path class="cls-1" d="M247.72,25.22c-3.39-3.2-7.81-4.8-13.26-4.8-5.73,0-10.73,1.31-14.98,3.94-4.25,2.63-7.74,6.02-10.46,10.18-2.72,4.16-4.75,8.79-6.09,13.9-1.34,5.11-2.01,10.11-2.01,14.98,0,3.54.45,6.88,1.36,10.03.91,3.15,2.29,5.95,4.16,8.39,1.86,2.44,4.25,4.37,7.17,5.81,2.91,1.43,6.43,2.15,10.54,2.15,3.06,0,5.95-.55,8.67-1.65,2.72-1.1,5.14-2.58,7.24-4.44,2.1-1.86,3.87-4.04,5.3-6.52,1.43-2.48,2.39-5.06,2.87-7.74h22.51c-2.29,7.17-4.99,13.24-8.1,18.21-3.11,4.97-6.59,9.01-10.46,12.11-3.87,3.11-8.17,5.35-12.9,6.74-4.73,1.38-9.87,2.08-15.41,2.08-14.53,0-25.73-3.87-33.61-11.61-7.88-7.74-11.83-18.92-11.83-33.54,0-8.31,1.29-16.2,3.87-23.65,2.58-7.45,6.28-14.02,11.11-19.71,4.82-5.68,10.7-10.2,17.63-13.55,6.93-3.34,14.69-5.02,23.29-5.02,5.92,0,11.42.81,16.48,2.44,5.06,1.63,9.44,4.04,13.12,7.24,3.68,3.2,6.52,7.17,8.53,11.9,2.01,4.73,2.96,10.2,2.87,16.41h-22.5c0-6.31-1.7-11.06-5.09-14.26Z"/>
    <path class="cls-1" d="M316.31,3.94l-17.49,83.43h49.45l-4.01,18.92h-71.96L293.66,3.94h22.65Z"/>
    <path class="cls-1" d="M447.47,3.94l-3.87,18.92h-55.62l-4.59,21.93h51.46l-3.73,17.49h-51.46l-5.3,25.09h56.48l-4.01,18.92h-78.84L369.35,3.94h78.12Z"/>
    <path class="cls-1" d="M507.25,3.94c4.59-.09,8.77.31,12.54,1.22,3.77.91,7,2.44,9.68,4.59,2.67,2.15,4.73,4.95,6.16,8.39s2.15,7.65,2.15,12.61c0,3.44-.57,6.74-1.72,9.89-1.15,3.15-2.77,5.95-4.87,8.39-2.1,2.44-4.59,4.47-7.45,6.09-2.87,1.63-6.02,2.68-9.46,3.15v.29c4.2,1.34,7.02,3.66,8.46,6.95,1.43,3.3,2.15,7,2.15,11.11,0,2.29-.12,5.04-.36,8.24-.24,3.2-.36,6.38-.36,9.53,0,2.29.09,4.47.29,6.52.19,2.06.57,3.85,1.15,5.38h-21.93c-.29-1.24-.53-2.41-.72-3.51-.19-1.1-.29-2.22-.29-3.37,0-3.44.19-6.9.57-10.39.38-3.49.57-6.95.57-10.39,0-2.48-.36-4.52-1.08-6.09-.72-1.58-1.72-2.84-3.01-3.8-1.29-.95-2.84-1.6-4.66-1.93-1.82-.33-3.82-.5-6.02-.5h-21.21l-8.46,39.99h-22.36L458.36,3.94h48.88ZM492.05,50.24c3.06,0,5.97-.31,8.74-.93,2.77-.62,5.23-1.58,7.38-2.87s3.87-2.96,5.16-5.02c1.29-2.05,1.93-4.52,1.93-7.38s-.45-4.99-1.36-6.67c-.91-1.67-2.13-2.94-3.66-3.8-1.53-.86-3.3-1.43-5.3-1.72-2.01-.29-4.11-.43-6.31-.43h-21.36l-6.02,28.81h20.78Z"/>
    <path class="cls-1" d="M537.78,3.94h23.08l15.34,43.58,31.82-43.58h26.52l-49.88,63.64-7.88,38.7h-22.65l8.17-39.71-24.51-62.64Z"/>
    <path class="cls-1" d="M718.39,3.94c4.59-.09,8.77.31,12.54,1.22,3.77.91,7,2.44,9.68,4.59,2.67,2.15,4.73,4.95,6.16,8.39s2.15,7.65,2.15,12.61c0,3.44-.57,6.74-1.72,9.89-1.15,3.15-2.77,5.95-4.87,8.39-2.1,2.44-4.59,4.47-7.45,6.09-2.87,1.63-6.02,2.68-9.46,3.15v.29c4.2,1.34,7.02,3.66,8.46,6.95,1.43,3.3,2.15,7,2.15,11.11,0,2.29-.12,5.04-.36,8.24-.24,3.2-.36,6.38-.36,9.53,0,2.29.09,4.47.29,6.52.19,2.06.57,3.85,1.15,5.38h-21.93c-.29-1.24-.53-2.41-.72-3.51-.19-1.1-.29-2.22-.29-3.37,0-3.44.19-6.9.57-10.39.38-3.49.57-6.95.57-10.39,0-2.48-.36-4.52-1.08-6.09-.72-1.58-1.72-2.84-3.01-3.8-1.29-.95-2.84-1.6-4.66-1.93-1.82-.33-3.82-.5-6.02-.5h-21.21l-8.46,39.99h-22.36l21.36-102.35h48.88ZM703.2,50.24c3.06,0,5.97-.31,8.74-.93,2.77-.62,5.23-1.58,7.38-2.87s3.87-2.96,5.16-5.02c1.29-2.05,1.93-4.52,1.93-7.38s-.45-4.99-1.36-6.67c-.91-1.67-2.13-2.94-3.66-3.8-1.53-.86-3.3-1.43-5.3-1.72-2.01-.29-4.11-.43-6.31-.43h-21.36l-6.02,28.81h20.78Z"/>
    <path class="cls-1" d="M818.01,3.94l17.06,102.35h-22.36l-3.3-22.79h-38.27l-12.9,22.79h-23.65L794.93,3.94h23.08ZM807.41,66.72l-5.02-40.71h-.29l-22.08,40.71h27.38Z"/>
    <path class="cls-1" d="M911.69,25.22c-3.39-3.2-7.81-4.8-13.26-4.8-5.73,0-10.73,1.31-14.98,3.94-4.25,2.63-7.74,6.02-10.46,10.18-2.72,4.16-4.76,8.79-6.09,13.9-1.34,5.11-2.01,10.11-2.01,14.98,0,3.54.45,6.88,1.36,10.03.91,3.15,2.29,5.95,4.16,8.39,1.86,2.44,4.25,4.37,7.17,5.81,2.91,1.43,6.43,2.15,10.54,2.15,3.06,0,5.95-.55,8.67-1.65,2.72-1.1,5.13-2.58,7.24-4.44,2.1-1.86,3.87-4.04,5.3-6.52,1.43-2.48,2.39-5.06,2.87-7.74h22.5c-2.29,7.17-4.99,13.24-8.1,18.21-3.11,4.97-6.59,9.01-10.46,12.11-3.87,3.11-8.17,5.35-12.9,6.74-4.73,1.38-9.87,2.08-15.41,2.08-14.53,0-25.73-3.87-33.61-11.61-7.88-7.74-11.83-18.92-11.83-33.54,0-8.31,1.29-16.2,3.87-23.65,2.58-7.45,6.28-14.02,11.11-19.71,4.82-5.68,10.7-10.2,17.63-13.55,6.93-3.34,14.69-5.02,23.29-5.02,5.92,0,11.42.81,16.48,2.44,5.06,1.63,9.44,4.04,13.12,7.24,3.68,3.2,6.52,7.17,8.53,11.9,2.01,4.73,2.96,10.2,2.87,16.41h-22.51c0-6.31-1.7-11.06-5.09-14.26Z"/>
    <path class="cls-1" d="M980.42,3.94l-21.64,102.35h-22.51l21.5-102.35h22.65Z"/>
    <path class="cls-1" d="M1016.83,3.94l27.81,72.82h.29l14.62-72.82h20.64l-21.64,102.35h-22.51l-28.09-71.82h-.29l-14.62,71.82h-20.93l21.5-102.35h23.22Z"/>
    <path class="cls-1" d="M1148.7,95.82c-3.35,4.59-7.26,7.86-11.75,9.82-4.49,1.96-9.17,2.94-14.05,2.94-14.53,0-25.73-3.87-33.61-11.61-7.88-7.74-11.83-18.92-11.83-33.54,0-8.31,1.29-16.2,3.87-23.65,2.58-7.45,6.28-14.02,11.11-19.71,4.82-5.68,10.7-10.2,17.63-13.55,6.93-3.34,14.69-5.02,23.29-5.02,6.02,0,11.66.72,16.91,2.15,5.26,1.43,9.84,3.63,13.76,6.59,3.92,2.96,7.02,6.72,9.32,11.25,2.29,4.54,3.44,9.96,3.44,16.27h-22.51c-.29-6.31-2.25-10.77-5.88-13.4-3.63-2.63-8.6-3.94-14.91-3.94-5.73,0-10.73,1.31-14.98,3.94-4.25,2.63-7.74,6.02-10.46,10.18-2.72,4.16-4.76,8.79-6.09,13.9-1.34,5.11-2.01,10.11-2.01,14.98,0,3.54.45,6.88,1.36,10.03.91,3.15,2.29,5.95,4.16,8.39,1.86,2.44,4.25,4.37,7.17,5.81,2.91,1.43,6.43,2.15,10.54,2.15s8-.55,11.11-1.65c3.1-1.1,5.78-2.6,8.03-4.52,2.24-1.91,4.11-4.23,5.59-6.95,1.48-2.72,2.7-5.71,3.66-8.96h-23.65l3.58-16.77h43.43l-11.75,55.33h-14.19v-10.46h-.29Z"/>
    <g>
      <path class="cls-1" d="M91.91,123.84l16.28,97.65h-21.34l-3.15-21.75h-36.52l-12.31,21.75H12.31l57.58-97.65h22.02ZM81.79,183.74l-4.79-38.84h-.27l-21.06,38.84h26.12Z"/>
      <path class="cls-1" d="M171.1,123.84c4.92,0,9.34.32,13.27.96,3.92.64,7.25,1.8,9.98,3.49,2.74,1.69,4.83,4.01,6.29,6.98,1.46,2.96,2.19,6.77,2.19,11.42,0,2.74-.41,5.4-1.23,8s-2.03,4.92-3.62,6.98c-1.6,2.05-3.51,3.76-5.74,5.13-2.24,1.37-4.81,2.24-7.73,2.6v.27c4.65,1.28,8.23,3.72,10.74,7.32,2.51,3.6,3.76,7.77,3.76,12.51,0,5.29-1.03,9.94-3.08,13.95-2.05,4.01-4.81,7.34-8.27,9.98-3.47,2.65-7.43,4.65-11.9,6.02-4.47,1.37-9.16,2.05-14.09,2.05h-51.97l20.38-97.65h41.03ZM160.71,204.81c4.92,0,8.96-1.32,12.1-3.97,3.15-2.64,4.72-6.56,4.72-11.76,0-2.55-.53-4.56-1.57-6.02-1.05-1.46-2.39-2.58-4.03-3.35-1.64-.77-3.47-1.25-5.47-1.44-2.01-.18-3.97-.27-5.88-.27h-21.06l-5.74,26.81h26.94ZM166.86,163.37c3.92,0,7.32-1.07,10.19-3.21,2.87-2.14,4.31-5.36,4.31-9.64,0-3.83-1.03-6.45-3.08-7.86-2.05-1.41-4.81-2.12-8.27-2.12h-22.7l-4.79,22.84h24.34Z"/>
      <path class="cls-1" d="M271.76,123.84l16.28,97.65h-21.34l-3.15-21.75h-36.52l-12.31,21.75h-22.57l57.58-97.65h22.02ZM261.64,183.74l-4.79-38.84h-.27l-21.06,38.84h26.12Z"/>
      <path class="cls-1" d="M361.14,144.15c-3.24-3.05-7.45-4.58-12.65-4.58-5.47,0-10.24,1.25-14.29,3.76-4.06,2.51-7.39,5.74-9.98,9.71-2.6,3.97-4.54,8.39-5.81,13.27-1.28,4.88-1.91,9.64-1.91,14.29,0,3.37.43,6.56,1.3,9.57.87,3.01,2.19,5.68,3.97,8,1.78,2.32,4.06,4.17,6.84,5.54,2.78,1.37,6.13,2.05,10.05,2.05,2.92,0,5.68-.52,8.27-1.57,2.6-1.05,4.9-2.46,6.91-4.24,2-1.78,3.69-3.85,5.06-6.22,1.37-2.37,2.28-4.83,2.74-7.39h21.47c-2.19,6.84-4.77,12.63-7.73,17.37-2.96,4.74-6.29,8.59-9.98,11.56-3.69,2.96-7.8,5.11-12.31,6.43-4.51,1.32-9.42,1.98-14.7,1.98-13.86,0-24.55-3.69-32.07-11.08-7.52-7.39-11.28-18.05-11.28-32,0-7.93,1.23-15.46,3.69-22.57,2.46-7.11,5.99-13.38,10.6-18.81,4.6-5.42,10.21-9.73,16.82-12.92,6.61-3.19,14.02-4.79,22.22-4.79,5.65,0,10.89.78,15.73,2.33,4.83,1.55,9,3.85,12.51,6.91,3.51,3.06,6.22,6.84,8.14,11.35,1.92,4.51,2.83,9.73,2.74,15.66h-21.47c0-6.02-1.62-10.55-4.86-13.61Z"/>
      <path class="cls-1" d="M470.15,199.2c-2.24,5.38-5.18,9.87-8.82,13.47-3.65,3.6-8.12,6.34-13.4,8.21-5.29,1.87-11.72,2.8-19.28,2.8-4.74,0-9.42-.5-14.02-1.5-4.61-1-8.71-2.62-12.31-4.86-3.6-2.23-6.52-5.2-8.75-8.89-2.24-3.69-3.35-8.23-3.35-13.61,0-2.46.23-4.9.68-7.32.46-2.41.91-4.81,1.37-7.18l11.9-56.49h21.47l-11.9,56.49c-.18.82-.39,1.76-.62,2.8-.23,1.05-.46,2.17-.68,3.35-.23,1.19-.41,2.3-.55,3.35-.14,1.05-.21,1.98-.21,2.8,0,1.19.25,2.55.75,4.1.5,1.55,1.44,2.99,2.8,4.31,1.37,1.32,3.24,2.44,5.61,3.35,2.37.91,5.42,1.37,9.16,1.37,4.38,0,7.93-.57,10.67-1.71,2.74-1.14,4.94-2.74,6.63-4.79,1.69-2.05,3.01-4.58,3.97-7.59.96-3.01,1.85-6.34,2.67-9.98l12.17-57.85h21.47l-11.9,56.76c-1.46,7.02-3.31,13.22-5.54,18.6Z"/>
      <path class="cls-1" d="M502.35,197.76c1,2.33,2.46,4.17,4.38,5.54s4.19,2.35,6.84,2.94c2.64.59,5.52.89,8.62.89,2.19,0,4.38-.27,6.57-.82s4.17-1.37,5.95-2.46c1.78-1.09,3.23-2.51,4.38-4.24,1.14-1.73,1.71-3.83,1.71-6.29s-.73-4.31-2.19-5.81c-1.46-1.5-3.35-2.8-5.68-3.9-2.32-1.09-4.97-2.05-7.93-2.87-2.96-.82-5.95-1.69-8.96-2.6-3.1-.91-6.11-2-9.03-3.28-2.92-1.28-5.54-2.92-7.86-4.92-2.33-2-4.2-4.47-5.61-7.39-1.42-2.92-2.12-6.47-2.12-10.67,0-5.47,1.14-10.12,3.42-13.95,2.28-3.83,5.24-6.95,8.89-9.37,3.65-2.41,7.77-4.19,12.38-5.33,4.6-1.14,9.28-1.71,14.02-1.71,5.01,0,9.73.57,14.16,1.71,4.42,1.14,8.3,2.99,11.63,5.54,3.33,2.55,5.97,5.81,7.93,9.78,1.96,3.97,2.94,8.78,2.94,14.43h-20.38c.09-2.74-.3-5.04-1.16-6.91-.87-1.87-2.1-3.4-3.69-4.58-1.6-1.18-3.49-2.03-5.68-2.53-2.19-.5-4.51-.75-6.97-.75-2.01,0-4.03.21-6.09.62-2.05.41-3.9,1.09-5.54,2.05-1.64.96-2.96,2.21-3.97,3.76-1,1.55-1.5,3.47-1.5,5.74s.89,4.36,2.67,5.95c1.78,1.6,3.92,2.92,6.43,3.97,2.51,1.05,5.08,1.87,7.73,2.46,2.64.59,4.79,1.07,6.43,1.44,3.83,1,7.34,2.17,10.53,3.49,3.19,1.32,5.95,3.03,8.27,5.13,2.32,2.1,4.12,4.65,5.4,7.66,1.28,3.01,1.91,6.7,1.91,11.08,0,5.84-1.21,10.8-3.62,14.91-2.42,4.1-5.52,7.43-9.3,9.98-3.78,2.55-8.05,4.4-12.79,5.54-4.74,1.14-9.44,1.71-14.09,1.71-13.68,0-23.87-2.78-30.57-8.34-6.7-5.56-10.05-14.31-10.05-26.26h20.38c-.18,3.47.23,6.36,1.23,8.68Z"/>
      <path class="cls-1" d="M649.52,123.84c13.77,0,24.12,3.31,31.05,9.92,6.93,6.61,10.39,15.98,10.39,28.11,0,8.48-1.19,16.37-3.56,23.66-2.37,7.3-5.9,13.61-10.6,18.94-4.7,5.33-10.58,9.51-17.64,12.51-7.07,3.01-15.3,4.51-24.69,4.51h-40.76l20.52-97.65h35.29ZM635.43,203.44c5.47,0,10.33-1,14.57-3.01,4.24-2,7.8-4.74,10.67-8.21,2.87-3.46,5.06-7.48,6.56-12.04,1.5-4.56,2.26-9.44,2.26-14.63,0-3.56-.39-6.77-1.16-9.64-.78-2.87-2.03-5.36-3.76-7.45-1.73-2.1-3.95-3.71-6.63-4.86-2.69-1.14-5.95-1.71-9.78-1.71h-16.14l-13.13,61.55h16.55Z"/>
      <path class="cls-1" d="M758.38,123.84l16.28,97.65h-21.34l-3.15-21.75h-36.52l-12.31,21.75h-22.57l57.58-97.65h22.02ZM748.26,183.74l-4.79-38.84h-.27l-21.06,38.84h26.12Z"/>
      <path class="cls-1" d="M771.38,141.89l3.83-18.05h81.51l-3.83,18.05h-29.27l-16.68,79.6h-21.61l16.69-79.6h-30.64Z"/>
      <path class="cls-1" d="M897.89,123.84l16.28,97.65h-21.34l-3.15-21.75h-36.52l-12.31,21.75h-22.57l57.58-97.65h22.02ZM887.77,183.74l-4.79-38.84h-.27l-21.06,38.84h26.12Z"/>
    </g>
  </g>
</svg>